<svg width="237" height="61" viewBox="0 0 237 61" fill="none" xmlns="http://www.w3.org/2000/svg">
<path d="M50.8603 17.755L36.1304 18.6614C35.8786 17.4025 35.3373 16.2694 34.5064 15.2623C33.6754 14.2299 32.5802 13.4116 31.2205 12.8073C29.886 12.1778 28.2871 11.8631 26.4238 11.8631C23.9311 11.8631 21.8286 12.3918 20.1164 13.4494C18.4043 14.4817 17.5482 15.8666 17.5482 17.6039C17.5482 18.9888 18.1021 20.1596 19.21 21.1164C20.3179 22.0732 22.2189 22.8412 24.9131 23.4203L35.4128 25.5354C41.053 26.6936 45.2579 28.5569 48.0276 31.1252C50.7973 33.6934 52.1822 37.0674 52.1822 41.2472C52.1822 45.0493 51.0617 48.3855 48.8207 51.2559C46.605 54.1264 43.5583 56.3673 39.6807 57.9788C35.8283 59.5651 31.3841 60.3582 26.3483 60.3582C18.6686 60.3582 12.5501 58.7593 7.99266 55.5616C3.4604 52.3386 0.803993 47.9575 0.0234375 42.418L15.8486 41.5871C16.327 43.9288 17.4852 45.7165 19.3233 46.9503C21.1614 48.1589 23.5156 48.7632 26.3861 48.7632C29.2061 48.7632 31.4723 48.2218 33.1845 47.1391C34.9218 46.0312 35.8031 44.6086 35.8283 42.8713C35.8031 41.4109 35.1862 40.2149 33.9776 39.2832C32.769 38.3264 30.9057 37.5962 28.3878 37.0926L18.3413 35.0909C12.676 33.9578 8.45847 31.9938 5.68876 29.1989C2.94423 26.4041 1.57196 22.8412 1.57196 18.5104C1.57196 14.7839 2.57913 11.5735 4.59346 8.87933C6.63298 6.18516 9.49082 4.10787 13.167 2.64748C16.8683 1.18708 21.1992 0.456888 26.1595 0.456888C33.4866 0.456888 39.2526 2.00541 43.4576 5.10245C47.6877 8.19949 50.1552 12.417 50.8603 17.755Z" fill="white"/>
<path d="M55.8879 59.2252V1.21226H71.4864V11.3343H72.0907C73.1483 7.73367 74.9234 5.01432 77.4161 3.17624C79.9089 1.31298 82.7793 0.381348 86.0274 0.381348C86.8332 0.381348 87.7018 0.431705 88.6335 0.532421C89.5651 0.633141 90.3834 0.771627 91.0884 0.947878V15.2245C90.3331 14.9979 89.2881 14.7964 87.9536 14.6202C86.6191 14.4439 85.3979 14.3558 84.2901 14.3558C81.9232 14.3558 79.8082 14.872 77.9449 15.9043C76.1068 16.9115 74.6464 18.3215 73.5637 20.1344C72.5062 21.9473 71.9774 24.0372 71.9774 26.4041V59.2252H55.8879Z" fill="white"/>
<path d="M94.0892 59.2252V1.21226H109.423V11.4476H110.103C111.312 8.04842 113.326 5.36683 116.146 3.40285C118.966 1.43887 122.34 0.456888 126.268 0.456888C130.247 0.456888 133.633 1.45146 136.428 3.44062C139.223 5.4046 141.086 8.0736 142.018 11.4476H142.622C143.806 8.12395 145.946 5.46755 149.043 3.47839C152.165 1.46405 155.854 0.456888 160.109 0.456888C165.523 0.456888 169.916 2.18166 173.29 5.63121C176.69 9.05558 178.389 13.9152 178.389 20.21V59.2252H162.337V23.3826C162.337 20.1596 161.481 17.7424 159.769 16.1309C158.057 14.5195 155.917 13.7137 153.348 13.7137C150.428 13.7137 148.149 14.6454 146.512 16.5086C144.876 18.3467 144.057 20.7765 144.057 23.798V59.2252H128.459V23.0426C128.459 20.1974 127.64 17.9313 126.004 16.2442C124.392 14.5572 122.265 13.7137 119.621 13.7137C117.833 13.7137 116.222 14.167 114.786 15.0734C113.376 15.9547 112.256 17.2011 111.425 18.8125C110.594 20.3988 110.179 22.2621 110.179 24.4023V59.2252H94.0892Z" fill="white"/>
<path d="M202.817 56.1408V2.66016H216.338V56.1408H202.817ZM182.837 36.1611V22.6399H236.318V36.1611H182.837Z" fill="#FF7A01"/>
</svg>
