<svg width="237" height="61" viewBox="0 0 237 61" fill="none" xmlns="http://www.w3.org/2000/svg">
<path d="M50.995 17.755L36.2652 18.6614C36.0134 17.4025 35.472 16.2694 34.6411 15.2623C33.8102 14.2299 32.7149 13.4116 31.3552 12.8073C30.0207 12.1778 28.4219 11.8631 26.5586 11.8631C24.0659 11.8631 21.9634 12.3918 20.2512 13.4494C18.539 14.4817 17.6829 15.8666 17.6829 17.6039C17.6829 18.9888 18.2369 20.1596 19.3448 21.1164C20.4526 22.0732 22.3537 22.8412 25.0478 23.4203L35.5476 25.5354C41.1877 26.6936 45.3926 28.5569 48.1624 31.1252C50.9321 33.6934 52.3169 37.0674 52.3169 41.2472C52.3169 45.0493 51.1965 48.3855 48.9555 51.2559C46.7397 54.1264 43.6931 56.3673 39.8155 57.9788C35.963 59.5651 31.5189 60.3582 26.4831 60.3582C18.8034 60.3582 12.6849 58.7593 8.12742 55.5616C3.59516 52.3386 0.938758 47.9575 0.158203 42.418L15.9833 41.5871C16.4617 43.9288 17.62 45.7165 19.4581 46.9503C21.2961 48.1589 23.6504 48.7632 26.5208 48.7632C29.3409 48.7632 31.607 48.2218 33.3192 47.1391C35.0566 46.0312 35.9379 44.6086 35.963 42.8713C35.9379 41.4109 35.321 40.2149 34.1124 39.2832C32.9038 38.3264 31.0405 37.5962 28.5226 37.0926L18.4761 35.0909C12.8108 33.9578 8.59324 31.9938 5.82352 29.1989C3.07899 26.4041 1.70672 22.8412 1.70672 18.5104C1.70672 14.7839 2.71389 11.5735 4.72823 8.87933C6.76774 6.18516 9.62558 4.10787 13.3017 2.64748C17.0031 1.18708 21.3339 0.456888 26.2942 0.456888C33.6214 0.456888 39.3874 2.00541 43.5923 5.10245C47.8224 8.19949 50.29 12.417 50.995 17.755Z" fill="black"/>
<path d="M56.0227 59.2252V1.21226H71.6212V11.3343H72.2255C73.283 7.73367 75.0582 5.01432 77.5509 3.17624C80.0436 1.31298 82.9141 0.381348 86.1622 0.381348C86.9679 0.381348 87.8366 0.431705 88.7682 0.532421C89.6999 0.633141 90.5182 0.771627 91.2232 0.947878V15.2245C90.4678 14.9979 89.4229 14.7964 88.0884 14.6202C86.7539 14.4439 85.5327 14.3558 84.4248 14.3558C82.058 14.3558 79.9429 14.872 78.0797 15.9043C76.2416 16.9115 74.7812 18.3215 73.6985 20.1344C72.6409 21.9473 72.1122 24.0372 72.1122 26.4041V59.2252H56.0227Z" fill="black"/>
<path d="M94.2239 59.2252V1.21226H109.558V11.4476H110.238C111.447 8.04842 113.461 5.36683 116.281 3.40285C119.101 1.43887 122.475 0.456888 126.403 0.456888C130.381 0.456888 133.768 1.45146 136.563 3.44062C139.358 5.4046 141.221 8.0736 142.153 11.4476H142.757C143.94 8.12395 146.081 5.46755 149.178 3.47839C152.3 1.46405 155.989 0.456888 160.244 0.456888C165.657 0.456888 170.051 2.18166 173.425 5.63121C176.824 9.05558 178.524 13.9152 178.524 20.21V59.2252H162.472V23.3826C162.472 20.1596 161.616 17.7424 159.904 16.1309C158.192 14.5195 156.051 13.7137 153.483 13.7137C150.562 13.7137 148.284 14.6454 146.647 16.5086C145.01 18.3467 144.192 20.7765 144.192 23.798V59.2252H128.594V23.0426C128.594 20.1974 127.775 17.9313 126.139 16.2442C124.527 14.5572 122.399 13.7137 119.756 13.7137C117.968 13.7137 116.356 14.167 114.921 15.0734C113.511 15.9547 112.391 17.2011 111.56 18.8125C110.729 20.3988 110.313 22.2621 110.313 24.4023V59.2252H94.2239Z" fill="black"/>
<path d="M202.952 56.1408V2.66016H216.473V56.1408H202.952ZM182.972 36.1611V22.6399H236.453V36.1611H182.972Z" fill="#FF7A01"/>
</svg>
