<svg width="95" height="24" viewBox="0 0 95 24" fill="none" xmlns="http://www.w3.org/2000/svg">
<path d="M20.3427 6.95214L14.4485 7.31486C14.3477 6.81108 14.1311 6.35768 13.7986 5.95466C13.4661 5.54156 13.0278 5.21411 12.4837 4.97229C11.9497 4.7204 11.3099 4.59446 10.5643 4.59446C9.56687 4.59446 8.72556 4.80605 8.04042 5.22922C7.35528 5.64232 7.01271 6.19647 7.01271 6.89169C7.01271 7.44584 7.23437 7.91436 7.6777 8.29723C8.12102 8.6801 8.88173 8.98741 9.95981 9.21914L14.1613 10.0655C16.4183 10.529 18.1009 11.2746 19.2092 12.3023C20.3175 13.33 20.8717 14.6801 20.8717 16.3526C20.8717 17.8741 20.4233 19.2091 19.5266 20.3577C18.6399 21.5063 17.4208 22.403 15.8691 23.0479C14.3276 23.6826 12.5492 24 10.5341 24C7.46107 24 5.01271 23.3602 3.18903 22.0806C1.37543 20.7909 0.312457 19.0378 0.000114441 16.8212L6.33261 16.4887C6.52404 17.4257 6.98752 18.1411 7.72304 18.6348C8.45855 19.1184 9.40062 19.3602 10.5492 19.3602C11.6777 19.3602 12.5845 19.1436 13.2696 18.7103C13.9649 18.267 14.3175 17.6977 14.3276 17.0025C14.3175 16.4181 14.0706 15.9395 13.587 15.5668C13.1034 15.1839 12.3578 14.8917 11.3502 14.6902L7.33009 13.8892C5.06309 13.4358 3.37543 12.6499 2.26712 11.5315C1.16888 10.4131 0.619762 8.98741 0.619762 7.25441C0.619762 5.76322 1.02278 4.47859 1.82883 3.4005C2.64495 2.32242 3.78853 1.49118 5.25956 0.906801C6.74067 0.322419 8.47367 0.0302276 10.4586 0.0302276C13.3905 0.0302276 15.6978 0.649874 17.3805 1.88917C19.0732 3.12846 20.0606 4.81612 20.3427 6.95214Z" fill="black"/>
<path d="M22.3545 23.5466V0.332494H28.5963V4.38287H28.8381C29.2613 2.94207 29.9716 1.8539 30.9691 1.11839C31.9666 0.372796 33.1152 0 34.415 0C34.7374 0 35.085 0.0201509 35.4578 0.0604527C35.8306 0.100756 36.158 0.156172 36.4402 0.2267V5.93955C36.1379 5.84887 35.7198 5.76826 35.1858 5.69773C34.6518 5.6272 34.1631 5.59194 33.7198 5.59194C32.7727 5.59194 31.9263 5.79849 31.1807 6.21159C30.4452 6.61461 29.8608 7.17884 29.4276 7.90428C29.0044 8.62972 28.7928 9.466 28.7928 10.4131V23.5466H22.3545Z" fill="black"/>
<path d="M37.6409 23.5466V0.332494H43.7769V4.42821H44.049C44.5326 3.06801 45.3387 1.99496 46.4671 1.20907C47.5956 0.423174 48.9457 0.0302276 50.5175 0.0302276C52.1094 0.0302276 53.4646 0.428212 54.583 1.22418C55.7014 2.01008 56.447 3.07809 56.8198 4.42821H57.0616C57.5351 3.09824 58.3916 2.03526 59.6308 1.23929C60.8802 0.43325 62.3563 0.0302276 64.0591 0.0302276C66.2253 0.0302276 67.9835 0.720404 69.3336 2.10076C70.6938 3.47103 71.3739 5.41562 71.3739 7.93451V23.5466H64.9507V9.20403C64.9507 7.91436 64.6082 6.9471 63.923 6.30227C63.2379 5.65743 62.3815 5.33501 61.3538 5.33501C60.185 5.33501 59.2732 5.70781 58.6182 6.4534C57.9633 7.18892 57.6359 8.16121 57.6359 9.37028V23.5466H51.3941V9.06801C51.3941 7.92947 51.0666 7.02267 50.4117 6.34761C49.7669 5.67254 48.9155 5.33501 47.8575 5.33501C47.1422 5.33501 46.4973 5.51637 45.923 5.87909C45.3588 6.23174 44.9104 6.73048 44.5779 7.37531C44.2455 8.01008 44.0792 8.75567 44.0792 9.61209V23.5466H37.6409Z" fill="black"/>
<path d="M81.1486 22.3126V0.912109H86.5592V22.3126H81.1486ZM73.1537 14.3177V8.90707H94.5542V14.3177H73.1537Z" fill="#FF7A01"/>
</svg>
