<svg width="237" height="61" viewBox="0 0 237 61" fill="none" xmlns="http://www.w3.org/2000/svg">
<path d="M50.8603 17.6945L36.1304 18.6009C35.8786 17.3419 35.3373 16.2089 34.5064 15.2017C33.6754 14.1694 32.5802 13.351 31.2205 12.7467C29.886 12.1173 28.2871 11.8025 26.4238 11.8025C23.9311 11.8025 21.8286 12.3313 20.1164 13.3888C18.4043 14.4212 17.5482 15.806 17.5482 17.5434C17.5482 18.9282 18.1021 20.0991 19.21 21.0559C20.3179 22.0127 22.2189 22.7807 24.9131 23.3598L35.4128 25.4748C41.053 26.6331 45.2579 28.4963 48.0276 31.0646C50.7973 33.6329 52.1822 37.0069 52.1822 41.1866C52.1822 44.9887 51.0617 48.325 48.8207 51.1954C46.605 54.0658 43.5583 56.3068 39.6807 57.9182C35.8283 59.5045 31.3841 60.2977 26.3483 60.2977C18.6686 60.2977 12.5501 58.6988 7.99266 55.501C3.4604 52.2781 0.803993 47.8969 0.0234375 42.3575L15.8486 41.5266C16.327 43.8682 17.4852 45.656 19.3233 46.8897C21.1614 48.0983 23.5156 48.7026 26.3861 48.7026C29.2061 48.7026 31.4723 48.1613 33.1845 47.0786C34.9218 45.9707 35.8031 44.5481 35.8283 42.8107C35.8031 41.3503 35.1862 40.1543 33.9776 39.2227C32.769 38.2659 30.9057 37.5357 28.3878 37.0321L18.3413 35.0303C12.676 33.8973 8.45847 31.9333 5.68876 29.1384C2.94423 26.3435 1.57196 22.7807 1.57196 18.4498C1.57196 14.7233 2.57913 11.513 4.59346 8.81878C6.63298 6.12461 9.49082 4.04732 13.167 2.58693C16.8683 1.12654 21.1992 0.396341 26.1595 0.396341C33.4866 0.396341 39.2526 1.94486 43.4576 5.0419C47.6877 8.13894 50.1552 12.3565 50.8603 17.6945Z" fill="white"/>
<path d="M55.8879 59.1646V1.15171H71.4864V11.2738H72.0907C73.1483 7.67313 74.9234 4.95377 77.4161 3.1157C79.9089 1.25243 82.7793 0.320801 86.0274 0.320801C86.8332 0.320801 87.7018 0.371159 88.6335 0.471874C89.5651 0.572594 90.3834 0.71108 91.0884 0.887331V15.1639C90.3331 14.9373 89.2881 14.7359 87.9536 14.5596C86.6191 14.3834 85.3979 14.2953 84.2901 14.2953C81.9232 14.2953 79.8082 14.8114 77.9449 15.8438C76.1068 16.8509 74.6464 18.261 73.5637 20.0739C72.5062 21.8868 71.9774 23.9767 71.9774 26.3435V59.1646H55.8879Z" fill="white"/>
<path d="M94.0892 59.1646V1.15171H109.423V11.3871H110.103C111.312 7.98787 113.326 5.30628 116.146 3.3423C118.966 1.37833 122.34 0.396341 126.268 0.396341C130.247 0.396341 133.633 1.39092 136.428 3.38007C139.223 5.34405 141.086 8.01305 142.018 11.3871H142.622C143.806 8.06341 145.946 5.407 149.043 3.41784C152.165 1.40351 155.854 0.396341 160.109 0.396341C165.523 0.396341 169.916 2.12112 173.29 5.57067C176.69 8.99504 178.389 13.8546 178.389 20.1494V59.1646H162.337V23.322C162.337 20.0991 161.481 17.6819 159.769 16.0704C158.057 14.4589 155.917 13.6532 153.348 13.6532C150.428 13.6532 148.149 14.5848 146.512 16.4481C144.876 18.2862 144.057 20.716 144.057 23.7375V59.1646H128.459V22.9821C128.459 20.1368 127.64 17.8707 126.004 16.1837C124.392 14.4967 122.265 13.6532 119.621 13.6532C117.833 13.6532 116.222 14.1064 114.786 15.0129C113.376 15.8941 112.256 17.1405 111.425 18.752C110.594 20.3383 110.179 22.2015 110.179 24.3418V59.1646H94.0892Z" fill="white"/>
<path d="M202.817 56.0807V2.6001H216.338V56.0807H202.817ZM182.837 36.101V22.5798H236.318V36.101H182.837Z" fill="white"/>
</svg>
