<svg xmlns="http://www.w3.org/2000/svg" version="1.1" xmlns:xlink="http://www.w3.org/1999/xlink" width="379" height="378"><svg width="379" height="378" viewBox="0 0 379 378" fill="none" xmlns="http://www.w3.org/2000/svg">
<rect x="1.02002" y="0.5" width="377" height="377" rx="18.5" fill="black" stroke="#D9D9D9"></rect>
<path d="M110.791 173.383L93.8154 174.427C93.5252 172.976 92.9013 171.67 91.9437 170.51C90.9862 169.32 89.7239 168.377 88.1569 167.681C86.619 166.955 84.7764 166.592 82.6291 166.592C79.7563 166.592 77.3334 167.202 75.3602 168.421C73.387 169.61 72.4004 171.206 72.4004 173.208C72.4004 174.804 73.0388 176.154 74.3155 177.256C75.5923 178.359 77.7831 179.244 80.888 179.911L92.9884 182.349C99.4883 183.684 104.334 185.831 107.526 188.791C110.718 191.751 112.314 195.639 112.314 200.456C112.314 204.838 111.023 208.682 108.44 211.99C105.887 215.298 102.376 217.881 97.9069 219.738C93.4672 221.566 88.3456 222.48 82.542 222.48C73.6917 222.48 66.6404 220.638 61.3882 216.952C56.165 213.238 53.1036 208.189 52.2041 201.805L70.4417 200.848C70.993 203.546 72.3278 205.607 74.4461 207.028C76.5644 208.421 79.2776 209.118 82.5856 209.118C85.8355 209.118 88.4471 208.494 90.4203 207.246C92.4225 205.969 93.4382 204.33 93.4672 202.328C93.4382 200.645 92.7272 199.266 91.3344 198.193C89.9415 197.09 87.7942 196.248 84.8925 195.668L73.3144 193.361C66.7855 192.055 61.925 189.792 58.7331 186.571C55.5701 183.35 53.9887 179.244 53.9887 174.253C53.9887 169.958 55.1494 166.259 57.4708 163.154C59.8212 160.049 63.1147 157.655 67.3513 155.972C71.6169 154.289 76.6079 153.447 82.3244 153.447C90.7685 153.447 97.4136 155.232 102.26 158.801C107.134 162.37 109.978 167.231 110.791 173.383Z" fill="white"></path>
<path d="M116.585 221.175V154.318H134.561V165.983H135.258C136.476 161.833 138.522 158.7 141.395 156.581C144.268 154.434 147.576 153.36 151.319 153.36C152.247 153.36 153.249 153.418 154.322 153.534C155.396 153.651 156.339 153.81 157.151 154.013V170.466C156.281 170.205 155.077 169.973 153.539 169.77C152.001 169.567 150.593 169.465 149.317 169.465C146.589 169.465 144.152 170.06 142.004 171.25C139.886 172.41 138.203 174.035 136.955 176.125C135.736 178.214 135.127 180.622 135.127 183.35V221.175H116.585Z" fill="white"></path>
<path d="M160.61 221.175V154.318H178.281V166.114H179.065C180.458 162.196 182.779 159.106 186.029 156.842C189.279 154.579 193.167 153.447 197.694 153.447C202.279 153.447 206.182 154.594 209.403 156.886C212.624 159.149 214.771 162.225 215.845 166.114H216.541C217.905 162.283 220.371 159.222 223.941 156.93C227.539 154.608 231.79 153.447 236.694 153.447C242.933 153.447 247.996 155.435 251.885 159.411C255.802 163.357 257.761 168.957 257.761 176.212V221.175H239.262V179.868C239.262 176.154 238.275 173.368 236.302 171.511C234.329 169.654 231.862 168.725 228.903 168.725C225.537 168.725 222.91 169.799 221.024 171.946C219.138 174.064 218.195 176.865 218.195 180.347V221.175H200.219V179.476C200.219 176.197 199.276 173.586 197.389 171.641C195.532 169.697 193.08 168.725 190.033 168.725C187.973 168.725 186.116 169.248 184.462 170.292C182.837 171.308 181.546 172.744 180.588 174.601C179.631 176.429 179.152 178.577 179.152 181.043V221.175H160.61Z" fill="white"></path>
<path d="M285.912 217.62V155.986H301.494V217.62H285.912ZM262.886 194.594V179.012H324.52V194.594H262.886Z" fill="#FF7A01"></path>
</svg><style>@media (prefers-color-scheme: light) { :root { filter: none; } }
@media (prefers-color-scheme: dark) { :root { filter: none; } }
</style></svg>