<svg width="119" height="30" viewBox="0 0 119 30" fill="none" xmlns="http://www.w3.org/2000/svg">
<path d="M25.4282 8.69018L18.0605 9.14358C17.9345 8.51385 17.6637 7.9471 17.2481 7.44333C16.8325 6.92695 16.2847 6.51763 15.6046 6.21536C14.937 5.9005 14.1373 5.74307 13.2053 5.74307C11.9585 5.74307 10.9068 6.00756 10.0504 6.53652C9.19398 7.0529 8.76577 7.74559 8.76577 8.61461C8.76577 9.3073 9.04284 9.89295 9.597 10.3715C10.1512 10.8501 11.102 11.2343 12.4496 11.5239L17.7015 12.5819C20.5227 13.1612 22.626 14.0932 24.0114 15.3778C25.3967 16.6625 26.0894 18.3501 26.0894 20.4408C26.0894 22.3426 25.529 24.0113 24.4081 25.4471C23.2998 26.8829 21.7758 28.0038 19.8363 28.8098C17.9093 29.6033 15.6864 30 13.1675 30C9.32622 30 6.26577 29.2003 3.98617 27.6008C1.71917 25.9887 0.390451 23.7972 2.28882e-05 21.0265L7.91564 20.6108C8.15493 21.7821 8.73428 22.6763 9.65368 23.2935C10.5731 23.898 11.7507 24.2003 13.1864 24.2003C14.597 24.2003 15.7305 23.9295 16.5869 23.3879C17.4559 22.8338 17.8967 22.1222 17.9093 21.2532C17.8967 20.5227 17.5882 19.9244 16.9836 19.4584C16.3791 18.9799 15.4471 18.6146 14.1877 18.3627L9.16249 17.3615C6.32874 16.7947 4.21917 15.8123 2.83378 14.4144C1.46098 13.0164 0.774582 11.2343 0.774582 9.06801C0.774582 7.20403 1.27836 5.59824 2.28592 4.25063C3.30607 2.90302 4.73554 1.86398 6.57433 1.1335C8.42571 0.403023 10.592 0.0377845 13.0731 0.0377845C16.7381 0.0377845 19.6222 0.812343 21.7255 2.36146C23.8413 3.91058 25.0756 6.02015 25.4282 8.69018Z" fill="white"/>
<path d="M27.943 29.4333L27.943 0.415617H35.7453V5.47859H36.0476C36.5765 3.67758 37.4644 2.31738 38.7113 1.39799C39.9581 0.465995 41.3939 0 43.0186 0C43.4216 0 43.8561 0.0251886 44.3221 0.0755659C44.7881 0.125945 45.1974 0.195215 45.5501 0.283374V7.42443C45.1722 7.31108 44.6496 7.21033 43.9821 7.12217C43.3146 7.03401 42.7037 6.98993 42.1496 6.98993C40.9657 6.98993 39.9078 7.24811 38.9758 7.76448C38.0564 8.26826 37.3259 8.97355 36.7843 9.88035C36.2554 10.7872 35.9909 11.8325 35.9909 13.0164V29.4333H27.943Z" fill="white"/>
<path d="M47.051 29.4333V0.415617H54.7211V5.53527H55.0611C55.6656 3.83501 56.6732 2.4937 58.0838 1.51133C59.4944 0.528968 61.182 0.0377845 63.1467 0.0377845C65.1367 0.0377845 66.8306 0.535265 68.2286 1.53023C69.6266 2.51259 70.5586 3.84761 71.0246 5.53527H71.3268C71.9188 3.8728 72.9893 2.54408 74.5384 1.54912C76.1001 0.541562 77.9452 0.0377845 80.0737 0.0377845C82.7815 0.0377845 84.9792 0.900505 86.6669 2.62595C88.3671 4.33879 89.2173 6.76952 89.2173 9.91814V29.4333H81.1883V11.505C81.1883 9.89295 80.7601 8.68388 79.9037 7.87783C79.0472 7.07179 77.9767 6.66877 76.6921 6.66877C75.2311 6.66877 74.0913 7.13476 73.2727 8.06675C72.454 8.98615 72.0447 10.2015 72.0447 11.7128V29.4333H64.2425V11.335C64.2425 9.91184 63.8331 8.77834 63.0145 7.93451C62.2085 7.09068 61.1442 6.66877 59.8218 6.66877C58.9276 6.66877 58.1216 6.89547 57.4037 7.34887C56.6984 7.78967 56.1379 8.4131 55.7223 9.21914C55.3067 10.0126 55.0989 10.9446 55.0989 12.0151V29.4333H47.051Z" fill="white"/>
<path d="M101.436 27.8903V1.13965H108.199V27.8903H101.436ZM91.4422 17.8966V11.1334H118.193V17.8966H91.4422Z" fill="#FF7A01"/>
</svg>
